<?xml version="1.0" encoding="UTF-8"?>
<svg id="Layer_1" data-name="Layer 1" xmlns="http://www.w3.org/2000/svg" viewBox="0 0 4000 1500">
  <defs>
    <style>
      .cls-1 {
        fill: #fff;
      }

      .cls-2 {
        fill: none;
        stroke: #fff;
        stroke-linecap: round;
        stroke-linejoin: round;
        stroke-width: 56.74px;
      }
    </style>
  </defs>
  <path class="cls-1" d="M1680.17,508.45h-97.89l-171.43,323.01h89.84l35.86-63.66h197.51l35.86,63.66h88.11l-177.85-323.01ZM1569.14,712.38l66.92-128.96,66.92,128.96h-133.85Z"/>
  <path class="cls-1" d="M2283.12,834.17h-107.96l-111.22-111.22-48.99-48.99h130.97c28.57,0,51.77-23.2,51.77-51.77s-23.2-51.78-51.77-51.78h-170.38v261.08h-78.33v-315.73h271.72c57.24,0,103.64,46.4,103.64,103.55s-46.41,103.64-103.64,103.64h-2.3l116.49,111.22Z"/>
  <polygon class="cls-1" points="2746.6 515.76 2746.6 838.29 2672.39 838.29 2672.39 607.9 2532.02 758.04 2392.52 607.9 2392.52 834.17 2318.22 834.17 2318.22 511.63 2392.52 511.63 2532.41 666.67 2672.39 515.76 2746.6 515.76"/>
  <polygon class="cls-1" points="2884.57 570.41 2884.57 639.73 3116.3 639.73 3116.3 698.5 2884.57 698.5 2884.57 776.83 3143.24 776.83 3143.24 833.12 2809.5 833.12 2809.5 512.4 3143.24 512.4 3143.24 570.41 2884.57 570.41"/>
  <path class="cls-1" d="M1879.38,1045.14c0,26.32-18.31,39.48-54.94,39.48-13.37,0-25.25-1.53-35.63-4.59l3.73-16.75c11.95,4.12,23.29,6.19,34.04,6.19,24.18,0,36.28-6.83,36.28-20.49,0-6.9-3.13-12.81-9.39-17.71-4.2-3.27-12.45-7.65-24.75-13.13-12.95-5.76-22.02-11.06-27.21-15.9-7.18-6.69-10.77-15.08-10.77-25.18s3.66-19.1,10.99-25.71c8.18-7.4,19.74-11.1,34.67-11.1,16.93,0,28.53,1.1,34.79,3.31l-2.56,16.96c-10.81-3.41-22.3-5.12-34.46-5.12-18.28,0-27.42,6.12-27.42,18.35,0,5.9,2.63,10.84,7.9,14.83,3.42,2.49,10.95,6.26,22.62,11.31,13.3,5.76,22.9,11.24,28.81,16.43,8.89,7.82,13.33,17.43,13.33,28.81Z"/>
  <path class="cls-1" d="M2074.7,1009.5c0,22.98-6.72,41.35-20.16,55.11-13.45,13.76-28.99,20.65-46.63,20.65s-31.78-6.32-44.54-18.94c-12.77-12.63-19.15-29.68-19.15-51.16,0-23.26,6.72-41.7,20.16-55.32,13.44-13.62,28.98-20.43,46.62-20.43s31.78,6.31,44.55,18.94c12.77,12.63,19.15,29.68,19.15,51.16ZM2055.71,1011.96c0-18.35-4.82-32.56-14.46-42.63-9.64-10.06-20.75-15.1-33.34-15.1-11.67,0-22.05,5.3-31.15,15.9-9.1,10.6-13.65,24.75-13.65,42.46s4.85,32.67,14.56,42.73c9.71,10.07,20.82,15.1,33.34,15.1,11.67,0,22.04-5.37,31.1-16.11,9.07-10.74,13.6-24.86,13.6-42.35Z"/>
  <path class="cls-1" d="M2233.62,1065.41l-.64,15.68h-83.97c.85-17.57,1.28-41.89,1.28-72.98,0-26.75-.43-48.72-1.28-65.93h19.84c-.85,14.37-1.28,36.35-1.28,65.93,0,24.33-.39,43.81-1.17,58.47,21.34,0,43.74-.39,67.21-1.17Z"/>
  <path class="cls-1" d="M2411.11,942.18c-.29,13.44-.5,26-.64,37.66-.15,11.67-.22,22.55-.22,32.65,0,47.66-18.81,71.48-56.44,71.48-9.82,0-18.23-1.4-25.23-4.21-7.01-2.81-12.77-7.11-17.28-12.91-4.52-5.79-7.82-13.1-9.92-21.92-2.1-8.82-3.15-19.24-3.15-31.26,0-10.52-.07-21.71-.21-33.56-.15-11.84-.36-24.48-.64-37.93h20.27c-.85,27.1-1.28,48.33-1.28,63.69,0,12.38.6,22.46,1.82,30.25,1.21,7.79,3.36,14.28,6.46,19.47,3.09,5.2,6.99,8.87,11.68,11.05,4.69,2.17,10.67,3.26,17.92,3.26,7.61,0,13.8-1.08,18.56-3.26,4.77-2.17,8.64-5.76,11.63-10.77,2.98-5.02,5.12-11.45,6.4-19.31,1.28-7.86,1.92-18.16,1.92-30.89,0-7.54-.13-16.56-.38-27.05-.25-10.49-.62-22.64-1.12-36.44h19.84Z"/>
  <path class="cls-1" d="M2581.46,942.18l-.53,15.04c-14.08-.71-28.63-1.07-43.64-1.07-.14,13.66-.21,30.98-.21,51.96,0,23.19.35,47.52,1.06,72.98h-19.52c.85-24.25,1.28-48.58,1.28-72.98,0-20.7-.21-38.02-.64-51.96-10.52,0-25.32.43-44.38,1.28l.53-15.25h106.05Z"/>
  <path class="cls-1" d="M2667.83,1081.09h-20.27c1.07-23.04,1.6-47.37,1.6-72.98s-.53-47.16-1.6-65.93h20.27c-.99,19.42-1.49,41.4-1.49,65.93,0,25.75.5,50.07,1.49,72.98Z"/>
  <path class="cls-1" d="M2872.64,1009.5c0,22.98-6.72,41.35-20.16,55.11-13.45,13.76-28.99,20.65-46.63,20.65s-31.78-6.32-44.54-18.94c-12.77-12.63-19.15-29.68-19.15-51.16,0-23.26,6.72-41.7,20.16-55.32,13.44-13.62,28.98-20.43,46.62-20.43s31.78,6.31,44.55,18.94c12.77,12.63,19.15,29.68,19.15,51.16ZM2853.65,1011.96c0-18.35-4.82-32.56-14.46-42.63-9.64-10.06-20.75-15.1-33.34-15.1-11.67,0-22.05,5.3-31.15,15.9-9.1,10.6-13.65,24.75-13.65,42.46s4.85,32.67,14.56,42.73c9.71,10.07,20.82,15.1,33.34,15.1,11.67,0,22.04-5.37,31.1-16.11,9.07-10.74,13.6-24.86,13.6-42.35Z"/>
  <path class="cls-1" d="M3054.08,1081.09h-14.93c0-1.21-11.67-18.24-35-51.11-24.4-34.49-38.3-56.26-41.72-65.29h-1.07c1.28,17.14,1.92,31.83,1.92,44.07,0,23.9.54,48.01,1.6,72.34h-17.92c1.21-23.11,1.81-47.44,1.81-72.98s-.6-47.08-1.81-65.93h20.49c0,1.99,10.74,18.21,32.22,48.65,22.47,32.01,35.28,52.85,38.41,62.52h1.07c-1.21-17.36-1.82-32.08-1.82-44.17,0-26.32-.5-48.65-1.49-67h18.24c-1.21,18.85-1.81,40.82-1.81,65.93s.6,49.86,1.81,72.98Z"/>
  <path class="cls-1" d="M3218.99,1045.14c0,26.32-18.31,39.48-54.94,39.48-13.37,0-25.25-1.53-35.63-4.59l3.73-16.75c11.95,4.12,23.29,6.19,34.04,6.19,24.18,0,36.28-6.83,36.28-20.49,0-6.9-3.13-12.81-9.39-17.71-4.2-3.27-12.45-7.65-24.75-13.13-12.95-5.76-22.02-11.06-27.21-15.9-7.18-6.69-10.77-15.08-10.77-25.18s3.66-19.1,10.99-25.71c8.18-7.4,19.74-11.1,34.67-11.1,16.93,0,28.53,1.1,34.79,3.31l-2.56,16.96c-10.81-3.41-22.3-5.12-34.46-5.12-18.28,0-27.42,6.12-27.42,18.35,0,5.9,2.63,10.84,7.9,14.83,3.42,2.49,10.95,6.26,22.62,11.31,13.3,5.76,22.9,11.24,28.81,16.43,8.89,7.82,13.33,17.43,13.33,28.81Z"/>
  <polygon class="cls-1" points="3327.92 720.53 3190.94 863.53 3190.94 760.43 3279.72 670.22 3327.92 720.53"/>
  <polygon class="cls-1" points="3460.55 486.49 3460.55 582.17 3374.44 671.97 3345.3 641.56 3326.93 622.28 3460.55 486.49"/>
  <polygon class="cls-1" points="3532.43 842.26 3532.43 939.41 3463.21 867.11 3456.92 860.54 3270.03 665.47 3194.55 586.65 3194.55 489.42 3462.24 768.86 3480.56 788.16 3532.43 842.26"/>
  <path class="cls-2" d="M485.04,976.64l344.81-137.53c21.02-8.38,44.5-8.14,65.34.69l323.7,137.05c21.95,9.29,22.74,40.11,1.29,50.51l-321.1,155.8c-23.07,11.19-49.92,11.5-73.24.84l-342.06-156.36c-22.2-10.15-21.42-41.96,1.26-51.01Z"/>
  <path class="cls-2" d="M485.04,758.82l344.81-137.53c21.02-8.38,44.5-8.14,65.34.69l323.7,137.05c21.95,9.29,22.74,40.11,1.29,50.51l-321.1,155.8c-23.07,11.19-49.92,11.5-73.24.84l-342.06-156.36c-22.2-10.15-21.42-41.96,1.26-51.01Z"/>
  <path class="cls-2" d="M485.04,541.01l344.81-137.53c21.02-8.38,44.5-8.14,65.34.69l323.7,137.05c21.95,9.29,22.74,40.11,1.29,50.51l-321.1,155.8c-23.07,11.19-49.92,11.5-73.24.84l-342.06-156.36c-22.2-10.15-21.42-41.96,1.26-51.01Z"/>
</svg>